<svg xmlns="http://www.w3.org/2000/svg" viewBox="0 0 512 512" width="100%" height="100%"><circle cx="256" cy="256" r="240" fill="#F8FAFC"></circle><path d="M 230 440
           C 170 440 160 340 175 270
           C 190 200 150 140 185 80
           C 220 20 310 30 335 100
           C 360 170 330 240 325 310
           C 320 380 290 440 230 440 Z" fill="none" stroke="#1E3A8A" stroke-width="24" stroke-linecap="round" stroke-linejoin="round"></path><path d="M 235 370 L 250 280 L 290 190 L 290 110" fill="none" stroke="#14B8A6" stroke-width="6" stroke-dasharray="10 10"></path><path d="M 250 280 L 195 210" fill="none" stroke="#14B8A6" stroke-width="6" stroke-dasharray="10 10"></path><circle cx="235" cy="370" r="18" fill="#14B8A6"></circle><circle cx="235" cy="370" r="6" fill="#FFFFFF"></circle><circle cx="195" cy="210" r="16" fill="#14B8A6"></circle><circle cx="195" cy="210" r="5" fill="#FFFFFF"></circle><circle cx="290" cy="190" r="18" fill="#14B8A6"></circle><circle cx="290" cy="190" r="6" fill="#FFFFFF"></circle><circle cx="290" cy="110" r="16" fill="#14B8A6"></circle><circle cx="290" cy="110" r="5" fill="#FFFFFF"></circle><path d="M 380 230 A 60 60 0 0 1 380 290" fill="none" stroke="#14B8A6" stroke-width="8" stroke-linecap="round"></path><path d="M 405 210 A 90 90 0 0 1 405 310" fill="none" stroke="#14B8A6" stroke-width="8" stroke-linecap="round"></path></svg>